<?xml version="1.0" standalone="no"?>
<!DOCTYPE svg PUBLIC "-//W3C//DTD SVG 20010904//EN"
 "http://www.w3.org/TR/2001/REC-SVG-20010904/DTD/svg10.dtd">
<svg version="1.0" xmlns="http://www.w3.org/2000/svg"
 width="512.000000pt" height="512.000000pt" viewBox="0 0 512.000000 512.000000"
 preserveAspectRatio="xMidYMid meet">

<g transform="translate(0.000000,512.000000) scale(0.100000,-0.100000)"
fill="#000000" stroke="none">
<path d="M359 4331 c-168 -24 -312 -160 -348 -329 -14 -66 -14 -301 -1 -373
27 -145 136 -266 285 -317 53 -18 302 -27 388 -14 163 26 288 131 341 287 21
63 31 254 18 361 -21 178 -126 313 -287 368 -57 20 -301 30 -396 17z"/>
<path d="M2084 4215 c-259 -70 -385 -379 -249 -611 33 -56 108 -130 158 -155
98 -51 40 -49 1458 -49 1199 0 1330 2 1373 16 76 26 130 60 181 115 215 229
106 604 -200 685 -75 20 -2646 19 -2721 -1z"/>
<path d="M305 3066 c-153 -49 -266 -173 -295 -326 -13 -68 -13 -292 0 -360 25
-131 114 -244 237 -303 68 -32 69 -32 250 -35 246 -5 320 17 429 126 71 72
104 151 117 282 23 230 -15 399 -112 498 -106 108 -183 132 -414 131 -109 0
-187 -5 -212 -13z"/>
<path d="M2120 2969 c-126 -21 -245 -113 -303 -236 -30 -63 -32 -76 -32 -173
0 -97 2 -110 32 -173 60 -127 177 -215 313 -237 86 -13 2551 -14 2634 0 179
29 319 167 348 344 37 225 -118 439 -348 476 -75 13 -2568 11 -2644 -1z"/>
<path d="M365 1824 c-11 -3 -40 -10 -65 -16 -140 -37 -262 -170 -290 -317 -13
-72 -13 -307 1 -373 38 -178 180 -306 367 -330 105 -14 314 -4 377 18 161 55
266 190 287 368 13 107 3 298 -18 361 -51 152 -177 260 -331 285 -56 10 -288
12 -328 4z"/>
<path d="M2074 1705 c-99 -31 -187 -101 -239 -189 -137 -234 -9 -543 254 -611
79 -21 2639 -22 2716 -1 77 20 133 53 192 112 219 219 127 586 -173 688 -43
14 -173 16 -1378 15 -1052 -1 -1339 -4 -1372 -14z"/>
</g>
</svg>
